<svg width="38" height="56" viewBox="0 0 38 56" fill="none" xmlns="http://www.w3.org/2000/svg">
<path d="M23.1735 41.3314C23.2858 41.1532 23.792 40.1345 24.2943 37.313C24.9167 33.8169 24.7313 29.5005 24.7627 25.4288C24.8171 18.3473 24.7627 13 24.7627 13C21.5 14.5 20.6581 15.5079 19.5 16.5085C18.3419 17.5092 17.5 19.5 17.5 19.5C17.5 19.5 16.894 20.9978 16.6528 22C16.0347 24.5679 16.5 30.5 16.5 30.5L16.6362 35.0201C16.6362 35.0201 16.3857 39.0497 15.532 40.3909C14.741 41.6339 13.8354 42.5356 12.5773 43.4689C11.2831 44.429 10.3634 44.6857 8.70564 45.0933C6.56737 45.6192 3 45.4353 3 45.4353V48.7698C3 48.7698 8.90198 49.0096 12.5773 48.4278C14.1994 48.171 15.2006 47.8038 16.6528 47.1453C18.4104 46.3483 19.9372 45.3231 21.1358 43.9819C22.6639 42.2719 22.644 42.1721 23.1735 41.3314Z" fill="#EF2A82" stroke="#EF2A82"/>
<path d="M34.8905 45.2359C35.8934 43.4118 35.9732 42.7456 36.5207 40.79C37.1825 38.4258 36.9662 32.4967 36.9662 32.4967L36.9102 20.356L36.5207 9.6687C36.5207 9.6687 30.5084 12.5528 28.7338 16.0667C27 19.5 27.6565 23.4865 27.6565 24C27.6565 25.0006 28 30 28 30V34.0194C28 34.0194 28.106 36.8312 27.6565 38.6525C26.9567 41.4882 26.3773 42.9271 24.2943 45.2359C22.5537 47.1651 21.4566 48.2489 18.9962 49.5108C16.5176 50.782 15.5602 50.7938 12.7811 51.3062C10.5 51.7268 7.78843 51.5242 7.78843 51.5242L3 51V54.7262C3 54.7262 6.18449 54.8553 10.0299 54.9369C12.8602 54.9969 16.0484 55.1096 18.5886 54.7262C21.2197 54.329 22.7817 54.2085 25.2113 53.2727C27.5282 52.3803 28.7645 51.6695 30.6112 50.1948C32.6753 48.5465 33.6968 47.4069 34.8905 45.2359Z" fill="white" stroke="white"/>
<path d="M15.8578 4.38228C18.5528 3.45119 20.1975 3.47237 23.0918 3.18531C25.6997 2.92664 29.8163 3.01431 29.8163 3.01431H36.5408V7.54571H31.5484C29.0814 7.54571 27.6481 7.64319 25.2314 8.05869C23.2696 8.39598 22.1389 8.70431 20.4427 9.59766C18.7263 10.5017 17.9126 11.0738 16.6729 12.4191C15.6042 13.5789 15.1168 14.4904 14.4314 15.839C13.7646 17.1511 13.4811 18.1483 13.2088 19.6864C12.7877 22.0653 13.007 25.8423 13.007 25.8423L13 33C13 33 13.007 35 12.5 37.5C12.3012 38.4801 11.8734 39.5238 11 40.5C10.349 41.2276 9 42 9 42C9 42 7.21983 42.8074 6 43C4.84276 43.1827 3 43 3 43C3 43 3.02012 40.5479 3.02012 37.128L3.02013 32.9311C3.00352 31.2321 2.98466 29.4362 3.02013 27.6377C3.08142 24.5307 3.22413 19.2589 3.22391 18.8314C3.2237 18.404 3.72877 15.0884 4.95598 12.9321C6.32778 10.5217 7.42958 9.02742 9.84653 7.28921C11.9038 5.80966 13.3524 5.2479 15.8578 4.38228Z" fill="white"/>
<path d="M3.02013 27.6377C3.08142 24.5307 3.22413 19.2589 3.22391 18.8314C3.2237 18.404 3.72877 15.0884 4.95598 12.9321C6.32778 10.5217 7.42958 9.02742 9.84653 7.28921C11.9038 5.80966 13.3524 5.2479 15.8578 4.38228C18.5528 3.45119 20.1975 3.47237 23.0918 3.18531C25.6997 2.92664 29.8163 3.01431 29.8163 3.01431H36.5408V7.54571C36.5408 7.54571 33.498 7.54571 31.5484 7.54571C29.0814 7.54571 27.6481 7.64319 25.2314 8.05869C23.2696 8.39598 22.1389 8.70431 20.4427 9.59766C18.7263 10.5017 17.9126 11.0738 16.6729 12.4191C15.6042 13.5789 15.1168 14.4904 14.4314 15.839C13.7646 17.1511 13.4811 18.1483 13.2088 19.6864C12.7877 22.0653 13.007 25.8423 13.007 25.8423L13 33C13 33 13.007 35 12.5 37.5C12.3012 38.4801 11.8734 39.5238 11 40.5C10.349 41.2276 9 42 9 42C9 42 7.21983 42.8074 6 43C4.84276 43.1827 3 43 3 43C3 43 3.02012 40.5479 3.02012 37.128M3.02013 27.6377C2.95344 31.0194 3.07884 34.3921 3.02012 37.128M3.02013 27.6377L3.02012 37.128" stroke="white"/>
<circle cx="3.5" cy="3.5" r="3" fill="#EF2A82" stroke="#EF2A82"/>
</svg>
