<svg width="45" height="53" viewBox="0 0 45 53" fill="none" xmlns="http://www.w3.org/2000/svg">
<g clip-path="url(#clip0_0_1132)">
<path fill-rule="evenodd" clip-rule="evenodd" d="M28.523 0L8.04297 30.1256H22.221L42.701 0H28.523Z" fill="#BF392C"/>
<path fill-rule="evenodd" clip-rule="evenodd" d="M0.166992 0L20.645 30.1256H34.825L14.345 0H0.166992Z" fill="#E2574C"/>
<path fill-rule="evenodd" clip-rule="evenodd" d="M22.2212 15.8539C19.9298 15.8295 17.6564 16.2627 15.5325 17.1285C13.4086 17.9942 11.4764 19.2753 9.8477 20.8976C8.21899 22.5199 6.92611 24.4512 6.04389 26.5797C5.16166 28.7083 4.70761 30.9917 4.70801 33.298C4.7084 35.6043 5.16324 37.8876 6.0462 40.0158C6.92915 42.144 8.2227 44.0749 9.85197 45.6966C11.4812 47.3183 13.4139 48.5988 15.5381 49.4638C17.6623 50.3288 19.9358 50.7612 22.2272 50.7361C26.7772 50.6657 31.1172 48.7969 34.3099 45.5333C37.5026 42.2696 39.2917 37.873 39.2909 33.293C39.2901 28.713 37.4995 24.317 34.3057 21.0545C31.1119 17.792 26.7712 15.9247 22.2212 15.8559" fill="#E5E5E5"/>
<path fill-rule="evenodd" clip-rule="evenodd" d="M22.2214 20.0972C15.0094 20.0972 9.10742 26.0373 9.10742 33.296C9.10742 40.5546 15.0094 46.4948 22.2214 46.4948C29.4334 46.4948 35.3354 40.5546 35.3354 33.296C35.3354 26.0373 29.4354 20.0972 22.2214 20.0972Z" fill="#B5B5B5"/>
<path fill-rule="evenodd" clip-rule="evenodd" d="M29.247 43.1936L22.221 38.0083L15.197 43.1936L17.913 34.9003L10.793 29.713H19.507L22.223 21.4156L24.941 29.713H33.651L26.531 34.8983L29.247 43.1936Z" fill="white"/>
</g>
<defs>
<clipPath id="clip0_0_1132">
<rect width="44" height="52.3364" fill="white" transform="translate(0.166992)"/>
</clipPath>
</defs>
</svg>
