<svg width="45" height="53" viewBox="0 0 45 53" fill="none" xmlns="http://www.w3.org/2000/svg">
<g clip-path="url(#clip0_0_1159)">
<path fill-rule="evenodd" clip-rule="evenodd" d="M28.689 0L8.20898 30.1256H22.387L42.867 0H28.689Z" fill="#BF392C"/>
<path fill-rule="evenodd" clip-rule="evenodd" d="M0.333008 0L20.811 30.1256H34.991L14.511 0H0.333008Z" fill="#E2574C"/>
<path fill-rule="evenodd" clip-rule="evenodd" d="M22.3872 15.8539C20.0958 15.8295 17.8224 16.2627 15.6985 17.1285C13.5746 17.9942 11.6424 19.2753 10.0137 20.8976C8.385 22.5199 7.09213 24.4512 6.2099 26.5797C5.32768 28.7083 4.87363 30.9917 4.87402 33.298C4.87442 35.6043 5.32926 37.8876 6.21221 40.0158C7.09517 42.144 8.38871 44.0749 10.018 45.6966C11.6473 47.3183 13.5799 48.5988 15.7041 49.4638C17.8283 50.3288 20.1018 50.7612 22.3932 50.7361C26.9432 50.6657 31.2832 48.7969 34.4759 45.5333C37.6686 42.2696 39.4577 37.873 39.4569 33.293C39.4561 28.713 37.6655 24.317 34.4717 21.0545C31.2779 17.792 26.9373 15.9247 22.3872 15.8559" fill="#FFD578"/>
<path fill-rule="evenodd" clip-rule="evenodd" d="M22.3874 20.0972C15.1754 20.0972 9.27344 26.0373 9.27344 33.296C9.27344 40.5546 15.1754 46.4948 22.3874 46.4948C29.5994 46.4948 35.5014 40.5546 35.5014 33.296C35.5014 26.0373 29.6014 20.0972 22.3874 20.0972Z" fill="#F8B64C"/>
<path fill-rule="evenodd" clip-rule="evenodd" d="M29.413 43.1936L22.387 38.0083L15.363 43.1936L18.079 34.9003L10.959 29.713H19.673L22.389 21.4156L25.107 29.713H33.817L26.697 34.8983L29.413 43.1936Z" fill="white"/>
</g>
<defs>
<clipPath id="clip0_0_1159">
<rect width="44" height="52.3364" fill="white" transform="translate(0.333008)"/>
</clipPath>
</defs>
</svg>
